<svg width="17" height="19" viewBox="0 0 17 19" fill="none" xmlns="http://www.w3.org/2000/svg">
<path fill-rule="evenodd" clip-rule="evenodd" d="M3.03935 9.32063C2.70364 9.32063 2.43149 9.59278 2.43149 9.92849C2.43149 10.2642 2.70364 10.5364 3.03935 10.5364H12.7845L9.6208 13.6924C9.38313 13.9295 9.38267 14.3144 9.61977 14.5521C9.85687 14.7897 10.2417 14.7902 10.4794 14.5531L14.6838 10.3588C14.7017 10.341 14.7184 10.3221 14.7338 10.3024C14.8029 10.2139 14.8481 10.1058 14.8595 9.98773C14.8614 9.96812 14.8624 9.94835 14.8624 9.92848C14.8624 9.90698 14.8612 9.88561 14.859 9.86443C14.8477 9.75698 14.8085 9.65786 14.7487 9.5745C14.7293 9.54747 14.7077 9.52192 14.6838 9.49813L10.4794 5.30386C10.2417 5.06676 9.85687 5.06723 9.61977 5.3049C9.38267 5.54257 9.38313 5.92745 9.6208 6.16455L12.7845 9.32063H3.03935Z" fill="white"/>
</svg>
