<svg width="19" height="18" viewBox="0 0 19 18" fill="none" xmlns="http://www.w3.org/2000/svg">
<path d="M17.0754 5.63103C17.0944 5.61065 17.1125 5.58886 17.1284 5.56597V5.56597C17.2402 5.40522 17.2546 5.19501 17.1584 5.02445C16.7514 4.30281 16.2791 3.6897 15.6963 3.14177C15.4938 2.95136 15.1939 2.9159 14.9432 3.03602V3.03602C13.3995 3.92368 11.4441 3.03602 11.1353 1.26072V1.26072C11.0725 1.01971 10.8769 0.834725 10.6316 0.791432C10.245 0.723182 9.84367 0.668949 9.38577 0.668949C8.91376 0.668949 8.56202 0.726577 8.19265 0.797782C7.98908 0.837025 7.84203 1.0161 7.84203 1.22342V1.22342C7.84203 1.24824 7.83992 1.27332 7.83533 1.29771C7.50604 3.04831 5.56711 3.91749 4.03412 3.03602V3.03602C3.78344 2.9159 3.48331 2.95116 3.2836 3.14451C2.70511 3.70458 2.23542 4.36093 1.83035 5.0289C1.729 5.19604 1.73837 5.40699 1.84999 5.56745V5.56745C1.86523 5.58935 1.88249 5.61018 1.9007 5.62968C3.1 6.91387 2.5808 8.9582 0.946636 9.54548V9.54548C0.766403 9.60305 0.650038 9.77849 0.671617 9.96646C0.770675 10.8293 0.941542 11.6798 1.23627 12.4181C1.30608 12.5929 1.47877 12.7016 1.66705 12.7016V12.7016C3.40981 12.6033 4.84622 14.1687 4.3488 15.8381C4.34495 15.851 4.33973 15.8637 4.3335 15.8756V15.8756C4.28056 15.9771 4.31381 16.1024 4.41122 16.1625C5.2592 16.6854 6.19115 17.118 7.20705 17.3149C7.2826 17.3296 7.36025 17.3057 7.41581 17.2524V17.2524C7.4255 17.2431 7.43445 17.2329 7.44255 17.2223C8.47275 15.8626 10.6093 15.8631 11.6388 17.2236C11.6462 17.2334 11.6544 17.2427 11.6633 17.2513V17.2513C11.7189 17.3046 11.7983 17.3253 11.8728 17.3053C12.9172 17.0238 13.8698 16.6512 14.648 16.0295C14.6962 15.991 14.6985 15.919 14.654 15.8763V15.8763C14.6412 15.8641 14.6317 15.8486 14.6267 15.8316C14.1338 14.1647 15.4674 12.6035 17.3103 12.7016V12.7016C17.4973 12.7016 17.6667 12.5895 17.7353 12.4156C18.0484 11.6229 18.2822 10.8241 18.3304 9.96809C18.3412 9.77532 18.2147 9.60423 18.0307 9.54548V9.54548C16.3972 8.86056 15.8777 6.91377 17.0754 5.63103Z" stroke="white" stroke-width="1.3" stroke-miterlimit="10" stroke-linecap="round" stroke-linejoin="round"/>
<path d="M9.7137 12.2991C11.4713 12.1801 12.7955 10.7182 12.6713 9.03382C12.5472 7.34945 11.0217 6.08044 9.26412 6.19942C7.50652 6.31839 6.18234 7.78029 6.30648 9.46466C6.43063 11.149 7.95609 12.418 9.7137 12.2991Z" stroke="white" stroke-width="1.3" stroke-miterlimit="10" stroke-linecap="round" stroke-linejoin="round"/>
</svg>
