<svg width="19" height="18" viewBox="0 0 19 18" fill="none" xmlns="http://www.w3.org/2000/svg">
<path d="M4.35 7.74999C2.45 7.74999 0.75 6.14999 0.75 4.14999C0.75 2.14999 2.45 0.649994 4.35 0.649994C6.25 0.649994 7.85 2.24999 7.85 4.14999C7.85 6.14999 6.25 7.74999 4.35 7.74999Z" stroke="white" stroke-width="1.3" stroke-miterlimit="10" stroke-linecap="round" stroke-linejoin="round"/>
<path d="M5.95002 17.35H2.65002C1.65002 17.35 0.650024 16.55 0.650024 15.55V12.25C0.650024 11.15 1.55002 10.35 2.65002 10.35H5.95002C6.95002 10.35 7.85002 11.15 7.85002 12.25V15.55C7.85002 16.45 6.95002 17.35 5.95002 17.35Z" stroke="white" stroke-width="1.3" stroke-miterlimit="10" stroke-linecap="round" stroke-linejoin="round"/>
<path d="M15.65 17.35H12.35C11.35 17.35 10.45 16.55 10.45 15.45V2.54999C10.45 1.54999 11.25 0.649994 12.35 0.649994H15.65C16.65 0.649994 17.55 1.44999 17.55 2.54999V15.45C17.55 16.45 16.65 17.35 15.65 17.35Z" stroke="white" stroke-width="1.3" stroke-miterlimit="10" stroke-linecap="round" stroke-linejoin="round"/>
</svg>
