<svg width="24" height="24" viewBox="0 0 24 24" fill="none" xmlns="http://www.w3.org/2000/svg">
<path d="M7.69998 11.1C5.79998 11.1 4.09998 9.5 4.09998 7.5C4.09998 5.5 5.79998 4 7.69998 4C9.59998 4 11.2 5.6 11.2 7.5C11.2 9.5 9.59998 11.1 7.69998 11.1Z" stroke="white" stroke-width="1.3" stroke-miterlimit="10" stroke-linecap="round" stroke-linejoin="round"/>
<path d="M9.3 20.7H6C5 20.7 4 19.9 4 18.9V15.6C4 14.5 4.9 13.7 6 13.7H9.3C10.3 13.7 11.2 14.5 11.2 15.6V18.9C11.2 19.8 10.3 20.7 9.3 20.7Z" stroke="white" stroke-width="1.3" stroke-miterlimit="10" stroke-linecap="round" stroke-linejoin="round"/>
<path d="M19 20.7H15.7C14.7 20.7 13.8 19.9 13.8 18.8V5.9C13.8 4.9 14.6 4 15.7 4H19C20 4 20.9 4.8 20.9 5.9V18.8C20.9 19.8 20 20.7 19 20.7Z" stroke="white" stroke-width="1.3" stroke-miterlimit="10" stroke-linecap="round" stroke-linejoin="round"/>
</svg>
