<svg width="24" height="23" viewBox="0 0 24 23" fill="none" xmlns="http://www.w3.org/2000/svg">
<path d="M19.3716 8.27145C19.3901 8.25165 19.4077 8.23048 19.4231 8.20824V8.20824C19.5318 8.05204 19.5458 7.84779 19.4523 7.68206C19.0568 6.98088 18.5979 6.38514 18.0316 5.85273C17.8348 5.66772 17.5435 5.63327 17.2999 5.74998V5.74998C15.7999 6.61248 13.8999 5.74998 13.5999 4.02498V4.02498C13.5388 3.79081 13.3488 3.61106 13.1105 3.56899C12.7348 3.50268 12.3448 3.44998 11.8999 3.44998C11.4413 3.44998 11.0995 3.50598 10.7406 3.57516C10.5428 3.61329 10.3999 3.7873 10.3999 3.98874V3.98874C10.3999 4.01286 10.3979 4.03722 10.3934 4.06093C10.0734 5.76192 8.18945 6.60647 6.6999 5.74998V5.74998C6.45632 5.63327 6.1647 5.66752 5.97064 5.8554C5.40855 6.39959 4.95217 7.03734 4.55858 7.68639C4.4601 7.84879 4.4692 8.05376 4.57766 8.20968V8.20968C4.59247 8.23096 4.60924 8.2512 4.62693 8.27014C5.79225 9.51795 5.28776 11.5043 3.6999 12.075V12.075C3.52478 12.1309 3.41171 12.3014 3.43268 12.484C3.52893 13.3225 3.69495 14.1488 3.98133 14.8662C4.04916 15.0361 4.21696 15.1416 4.3999 15.1416V15.1416C6.09328 15.0462 7.48899 16.5672 7.00566 18.1893C7.00192 18.2018 6.99685 18.2142 6.99079 18.2258V18.2258C6.93936 18.3244 6.97166 18.4461 7.06631 18.5045C7.89027 19.0126 8.7958 19.4329 9.78292 19.6243C9.85633 19.6385 9.93178 19.6153 9.98577 19.5635V19.5635C9.99517 19.5545 10.0039 19.5446 10.0117 19.5342C11.0128 18.2131 13.0887 18.2136 14.089 19.5355C14.0963 19.5451 14.1042 19.5541 14.1129 19.5624V19.5624C14.1669 19.6142 14.2441 19.6344 14.3164 19.6149C15.3313 19.3414 16.2568 18.9793 17.013 18.3753C17.0598 18.3379 17.0621 18.2679 17.0188 18.2264V18.2264C17.0064 18.2146 16.9971 18.1995 16.9923 18.183C16.5134 16.5633 17.8092 15.0463 19.5999 15.1416V15.1416C19.7816 15.1416 19.9462 15.0327 20.0129 14.8637C20.317 14.0935 20.5443 13.3174 20.591 12.4856C20.6016 12.2983 20.4786 12.1321 20.2999 12.075V12.075C18.7126 11.4095 18.2079 9.51784 19.3716 8.27145Z" stroke="white" stroke-width="1.3" stroke-miterlimit="10" stroke-linecap="round" stroke-linejoin="round"/>
<path d="M12.2185 14.7505C13.9263 14.6349 15.213 13.2145 15.0924 11.5778C14.9717 9.94118 13.4895 8.70813 11.7817 8.82373C10.0739 8.93934 8.78724 10.3598 8.90787 11.9965C9.0285 13.6331 10.5107 14.8661 12.2185 14.7505Z" stroke="white" stroke-width="1.3" stroke-miterlimit="10" stroke-linecap="round" stroke-linejoin="round"/>
</svg>
